<mxfile host="Electron" modified="2024-04-14T07:08:20.177Z" agent="Mozilla/5.0 (Windows NT 10.0; Win64; x64) AppleWebKit/537.36 (KHTML, like Gecko) draw.io/24.2.5 Chrome/120.0.6099.109 Electron/28.1.0 Safari/537.36" etag="-LDWlVELO1HXfs3PHDtP" version="24.2.5" type="device">
  <diagram name="第 1 页" id="ABaq6QSCuuKPusna-wMB">
    <mxGraphModel dx="1064" dy="1396" grid="1" gridSize="10" guides="1" tooltips="1" connect="1" arrows="1" fold="1" page="1" pageScale="1" pageWidth="827" pageHeight="1169" math="0" shadow="0">
      <root>
        <mxCell id="0" />
        <mxCell id="1" parent="0" />
        <mxCell id="M2gPaBllIkVykeYbQKTM-17" value="" style="rounded=0;whiteSpace=wrap;html=1;dashed=1;strokeWidth=2;strokeColor=#6c8ebf;fillColor=none;" parent="1" vertex="1">
          <mxGeometry width="720" height="140" as="geometry" />
        </mxCell>
        <mxCell id="M2gPaBllIkVykeYbQKTM-1" value="前一层" style="rounded=0;whiteSpace=wrap;html=1;fontSize=16;strokeWidth=2;strokeColor=#999999;fillColor=#d5e8d4;" parent="1" vertex="1">
          <mxGeometry x="20" y="20" width="80" height="40" as="geometry" />
        </mxCell>
        <mxCell id="M2gPaBllIkVykeYbQKTM-11" style="edgeStyle=orthogonalEdgeStyle;rounded=0;orthogonalLoop=1;jettySize=auto;html=1;exitX=1;exitY=0.5;exitDx=0;exitDy=0;strokeWidth=2;" parent="1" source="M2gPaBllIkVykeYbQKTM-2" target="M2gPaBllIkVykeYbQKTM-3" edge="1">
          <mxGeometry relative="1" as="geometry" />
        </mxCell>
        <mxCell id="M2gPaBllIkVykeYbQKTM-2" value="FP32" style="rounded=0;whiteSpace=wrap;html=1;fontSize=16;strokeWidth=2;strokeColor=#999999;fillColor=#66CC00;fontColor=#ffffff;" parent="1" vertex="1">
          <mxGeometry x="100" y="20" width="60" height="40" as="geometry" />
        </mxCell>
        <mxCell id="M2gPaBllIkVykeYbQKTM-3" value="当前层" style="rounded=0;whiteSpace=wrap;html=1;fontSize=16;strokeWidth=2;strokeColor=#999999;fillColor=#d5e8d4;" parent="1" vertex="1">
          <mxGeometry x="200" y="20" width="80" height="40" as="geometry" />
        </mxCell>
        <mxCell id="M2gPaBllIkVykeYbQKTM-12" style="edgeStyle=orthogonalEdgeStyle;rounded=0;orthogonalLoop=1;jettySize=auto;html=1;exitX=1;exitY=0.5;exitDx=0;exitDy=0;entryX=0;entryY=0.5;entryDx=0;entryDy=0;strokeWidth=2;" parent="1" source="M2gPaBllIkVykeYbQKTM-4" target="M2gPaBllIkVykeYbQKTM-5" edge="1">
          <mxGeometry relative="1" as="geometry" />
        </mxCell>
        <mxCell id="M2gPaBllIkVykeYbQKTM-4" value="FP32" style="rounded=0;whiteSpace=wrap;html=1;fontSize=16;strokeWidth=2;strokeColor=#999999;fillColor=#66CC00;fontColor=#ffffff;" parent="1" vertex="1">
          <mxGeometry x="280" y="20" width="60" height="40" as="geometry" />
        </mxCell>
        <mxCell id="M2gPaBllIkVykeYbQKTM-5" value="激活" style="rounded=0;whiteSpace=wrap;html=1;fontSize=16;strokeWidth=2;strokeColor=#999999;fillColor=#d5e8d4;" parent="1" vertex="1">
          <mxGeometry x="380" y="20" width="80" height="40" as="geometry" />
        </mxCell>
        <mxCell id="M2gPaBllIkVykeYbQKTM-13" style="edgeStyle=orthogonalEdgeStyle;rounded=0;orthogonalLoop=1;jettySize=auto;html=1;exitX=1;exitY=0.5;exitDx=0;exitDy=0;entryX=0;entryY=0.5;entryDx=0;entryDy=0;strokeWidth=2;" parent="1" source="M2gPaBllIkVykeYbQKTM-6" target="M2gPaBllIkVykeYbQKTM-7" edge="1">
          <mxGeometry relative="1" as="geometry" />
        </mxCell>
        <mxCell id="M2gPaBllIkVykeYbQKTM-6" value="FP32" style="rounded=0;whiteSpace=wrap;html=1;fontSize=16;strokeWidth=2;strokeColor=#999999;fillColor=#66CC00;fontColor=#ffffff;" parent="1" vertex="1">
          <mxGeometry x="460" y="20" width="60" height="40" as="geometry" />
        </mxCell>
        <mxCell id="M2gPaBllIkVykeYbQKTM-7" value="下一层" style="rounded=0;whiteSpace=wrap;html=1;fontSize=16;strokeWidth=2;strokeColor=#999999;fillColor=#d5e8d4;" parent="1" vertex="1">
          <mxGeometry x="560" y="20" width="80" height="40" as="geometry" />
        </mxCell>
        <mxCell id="M2gPaBllIkVykeYbQKTM-8" value="FP32" style="rounded=0;whiteSpace=wrap;html=1;fontSize=16;strokeWidth=2;strokeColor=#999999;fillColor=#66CC00;fontColor=#ffffff;" parent="1" vertex="1">
          <mxGeometry x="640" y="20" width="60" height="40" as="geometry" />
        </mxCell>
        <mxCell id="M2gPaBllIkVykeYbQKTM-14" style="edgeStyle=orthogonalEdgeStyle;rounded=0;orthogonalLoop=1;jettySize=auto;html=1;exitX=0.5;exitY=0;exitDx=0;exitDy=0;entryX=0.5;entryY=1;entryDx=0;entryDy=0;strokeWidth=2;" parent="1" source="M2gPaBllIkVykeYbQKTM-9" target="M2gPaBllIkVykeYbQKTM-3" edge="1">
          <mxGeometry relative="1" as="geometry" />
        </mxCell>
        <mxCell id="M2gPaBllIkVykeYbQKTM-9" value="权重" style="rounded=0;whiteSpace=wrap;html=1;fontSize=16;strokeWidth=2;strokeColor=#999999;fillColor=#d5e8d4;" parent="1" vertex="1">
          <mxGeometry x="200" y="80" width="80" height="40" as="geometry" />
        </mxCell>
        <mxCell id="M2gPaBllIkVykeYbQKTM-10" value="FP32" style="rounded=0;whiteSpace=wrap;html=1;fontSize=16;strokeWidth=2;strokeColor=#999999;fillColor=#66CC00;fontColor=#ffffff;" parent="1" vertex="1">
          <mxGeometry x="280" y="80" width="60" height="40" as="geometry" />
        </mxCell>
        <mxCell id="M2gPaBllIkVykeYbQKTM-18" value="" style="rounded=0;whiteSpace=wrap;html=1;dashed=1;strokeWidth=2;strokeColor=#d6b656;fillColor=none;" parent="1" vertex="1">
          <mxGeometry y="160" width="720" height="140" as="geometry" />
        </mxCell>
        <mxCell id="M2gPaBllIkVykeYbQKTM-19" value="" style="rounded=0;whiteSpace=wrap;html=1;dashed=1;strokeWidth=2;strokeColor=#9673a6;fillColor=none;" parent="1" vertex="1">
          <mxGeometry y="320" width="720" height="140" as="geometry" />
        </mxCell>
        <mxCell id="M2gPaBllIkVykeYbQKTM-20" value="" style="rounded=0;whiteSpace=wrap;html=1;dashed=1;strokeWidth=2;strokeColor=#b85450;fillColor=none;" parent="1" vertex="1">
          <mxGeometry y="480" width="720" height="340" as="geometry" />
        </mxCell>
        <mxCell id="M2gPaBllIkVykeYbQKTM-22" value="前一层" style="rounded=0;whiteSpace=wrap;html=1;fontSize=16;strokeWidth=2;strokeColor=#999999;fillColor=#d5e8d4;" parent="1" vertex="1">
          <mxGeometry x="20" y="180" width="80" height="40" as="geometry" />
        </mxCell>
        <mxCell id="M2gPaBllIkVykeYbQKTM-23" style="edgeStyle=orthogonalEdgeStyle;rounded=0;orthogonalLoop=1;jettySize=auto;html=1;exitX=1;exitY=0.5;exitDx=0;exitDy=0;strokeWidth=2;" parent="1" source="M2gPaBllIkVykeYbQKTM-24" target="M2gPaBllIkVykeYbQKTM-25" edge="1">
          <mxGeometry relative="1" as="geometry" />
        </mxCell>
        <mxCell id="M2gPaBllIkVykeYbQKTM-24" value="FP32" style="rounded=0;whiteSpace=wrap;html=1;fontSize=16;strokeWidth=2;strokeColor=#999999;fillColor=#66CC00;fontColor=#ffffff;" parent="1" vertex="1">
          <mxGeometry x="100" y="180" width="60" height="40" as="geometry" />
        </mxCell>
        <mxCell id="M2gPaBllIkVykeYbQKTM-25" value="当前层" style="rounded=0;whiteSpace=wrap;html=1;fontSize=16;strokeWidth=2;strokeColor=#999999;fillColor=#d5e8d4;" parent="1" vertex="1">
          <mxGeometry x="200" y="180" width="80" height="40" as="geometry" />
        </mxCell>
        <mxCell id="M2gPaBllIkVykeYbQKTM-26" style="edgeStyle=orthogonalEdgeStyle;rounded=0;orthogonalLoop=1;jettySize=auto;html=1;exitX=1;exitY=0.5;exitDx=0;exitDy=0;entryX=0;entryY=0.5;entryDx=0;entryDy=0;strokeWidth=2;" parent="1" source="M2gPaBllIkVykeYbQKTM-27" target="M2gPaBllIkVykeYbQKTM-28" edge="1">
          <mxGeometry relative="1" as="geometry" />
        </mxCell>
        <mxCell id="M2gPaBllIkVykeYbQKTM-27" value="FP32" style="rounded=0;whiteSpace=wrap;html=1;fontSize=16;strokeWidth=2;strokeColor=#999999;fillColor=#66CC00;fontColor=#ffffff;" parent="1" vertex="1">
          <mxGeometry x="280" y="180" width="60" height="40" as="geometry" />
        </mxCell>
        <mxCell id="M2gPaBllIkVykeYbQKTM-28" value="激活" style="rounded=0;whiteSpace=wrap;html=1;fontSize=16;strokeWidth=2;strokeColor=#999999;fillColor=#d5e8d4;" parent="1" vertex="1">
          <mxGeometry x="380" y="180" width="80" height="40" as="geometry" />
        </mxCell>
        <mxCell id="M2gPaBllIkVykeYbQKTM-29" style="edgeStyle=orthogonalEdgeStyle;rounded=0;orthogonalLoop=1;jettySize=auto;html=1;exitX=1;exitY=0.5;exitDx=0;exitDy=0;entryX=0;entryY=0.5;entryDx=0;entryDy=0;strokeWidth=2;" parent="1" source="M2gPaBllIkVykeYbQKTM-30" target="M2gPaBllIkVykeYbQKTM-31" edge="1">
          <mxGeometry relative="1" as="geometry" />
        </mxCell>
        <mxCell id="M2gPaBllIkVykeYbQKTM-30" value="FP32" style="rounded=0;whiteSpace=wrap;html=1;fontSize=16;strokeWidth=2;strokeColor=#999999;fillColor=#66CC00;fontColor=#ffffff;" parent="1" vertex="1">
          <mxGeometry x="460" y="180" width="60" height="40" as="geometry" />
        </mxCell>
        <mxCell id="M2gPaBllIkVykeYbQKTM-31" value="下一层" style="rounded=0;whiteSpace=wrap;html=1;fontSize=16;strokeWidth=2;strokeColor=#999999;fillColor=#d5e8d4;" parent="1" vertex="1">
          <mxGeometry x="560" y="180" width="80" height="40" as="geometry" />
        </mxCell>
        <mxCell id="M2gPaBllIkVykeYbQKTM-32" value="FP32" style="rounded=0;whiteSpace=wrap;html=1;fontSize=16;strokeWidth=2;strokeColor=#999999;fillColor=#66CC00;fontColor=#ffffff;" parent="1" vertex="1">
          <mxGeometry x="640" y="180" width="60" height="40" as="geometry" />
        </mxCell>
        <mxCell id="M2gPaBllIkVykeYbQKTM-33" style="edgeStyle=orthogonalEdgeStyle;rounded=0;orthogonalLoop=1;jettySize=auto;html=1;exitX=0.5;exitY=0;exitDx=0;exitDy=0;entryX=0.5;entryY=1;entryDx=0;entryDy=0;strokeWidth=2;" parent="1" source="M2gPaBllIkVykeYbQKTM-34" target="M2gPaBllIkVykeYbQKTM-25" edge="1">
          <mxGeometry relative="1" as="geometry" />
        </mxCell>
        <mxCell id="M2gPaBllIkVykeYbQKTM-34" value="权重" style="rounded=0;whiteSpace=wrap;html=1;fontSize=16;strokeWidth=2;strokeColor=#999999;fillColor=#d5e8d4;" parent="1" vertex="1">
          <mxGeometry x="200" y="240" width="80" height="40" as="geometry" />
        </mxCell>
        <mxCell id="M2gPaBllIkVykeYbQKTM-35" value="INT8" style="rounded=0;whiteSpace=wrap;html=1;fontSize=16;strokeWidth=2;strokeColor=#999999;fillColor=#FF6666;fontColor=#ffffff;" parent="1" vertex="1">
          <mxGeometry x="280" y="240" width="60" height="40" as="geometry" />
        </mxCell>
        <mxCell id="M2gPaBllIkVykeYbQKTM-36" value="前一层" style="rounded=0;whiteSpace=wrap;html=1;fontSize=16;strokeWidth=2;strokeColor=#999999;fillColor=#d5e8d4;" parent="1" vertex="1">
          <mxGeometry x="20" y="340" width="80" height="40" as="geometry" />
        </mxCell>
        <mxCell id="M2gPaBllIkVykeYbQKTM-37" style="edgeStyle=orthogonalEdgeStyle;rounded=0;orthogonalLoop=1;jettySize=auto;html=1;exitX=1;exitY=0.5;exitDx=0;exitDy=0;strokeWidth=2;" parent="1" source="M2gPaBllIkVykeYbQKTM-38" target="M2gPaBllIkVykeYbQKTM-39" edge="1">
          <mxGeometry relative="1" as="geometry" />
        </mxCell>
        <mxCell id="M2gPaBllIkVykeYbQKTM-38" value="INT8" style="rounded=0;whiteSpace=wrap;html=1;fontSize=16;strokeWidth=2;strokeColor=#999999;fillColor=#FF6666;fontColor=#ffffff;" parent="1" vertex="1">
          <mxGeometry x="100" y="340" width="60" height="40" as="geometry" />
        </mxCell>
        <mxCell id="M2gPaBllIkVykeYbQKTM-39" value="当前层和激活" style="rounded=0;whiteSpace=wrap;html=1;fontSize=16;strokeWidth=2;strokeColor=#999999;fillColor=#d5e8d4;" parent="1" vertex="1">
          <mxGeometry x="200" y="340" width="260" height="40" as="geometry" />
        </mxCell>
        <mxCell id="M2gPaBllIkVykeYbQKTM-43" style="edgeStyle=orthogonalEdgeStyle;rounded=0;orthogonalLoop=1;jettySize=auto;html=1;exitX=1;exitY=0.5;exitDx=0;exitDy=0;entryX=0;entryY=0.5;entryDx=0;entryDy=0;strokeWidth=2;" parent="1" source="M2gPaBllIkVykeYbQKTM-44" target="M2gPaBllIkVykeYbQKTM-45" edge="1">
          <mxGeometry relative="1" as="geometry" />
        </mxCell>
        <mxCell id="M2gPaBllIkVykeYbQKTM-44" value="INT8" style="rounded=0;whiteSpace=wrap;html=1;fontSize=16;strokeWidth=2;strokeColor=#999999;fillColor=#FF6666;fontColor=#ffffff;" parent="1" vertex="1">
          <mxGeometry x="460" y="340" width="60" height="40" as="geometry" />
        </mxCell>
        <mxCell id="M2gPaBllIkVykeYbQKTM-45" value="下一层" style="rounded=0;whiteSpace=wrap;html=1;fontSize=16;strokeWidth=2;strokeColor=#999999;fillColor=#d5e8d4;" parent="1" vertex="1">
          <mxGeometry x="560" y="340" width="80" height="40" as="geometry" />
        </mxCell>
        <mxCell id="M2gPaBllIkVykeYbQKTM-46" value="INT8" style="rounded=0;whiteSpace=wrap;html=1;fontSize=16;strokeWidth=2;strokeColor=#999999;fillColor=#FF6666;fontColor=#ffffff;" parent="1" vertex="1">
          <mxGeometry x="640" y="340" width="60" height="40" as="geometry" />
        </mxCell>
        <mxCell id="M2gPaBllIkVykeYbQKTM-48" value="权重" style="rounded=0;whiteSpace=wrap;html=1;fontSize=16;strokeWidth=2;strokeColor=#999999;fillColor=#d5e8d4;" parent="1" vertex="1">
          <mxGeometry x="200" y="400" width="80" height="40" as="geometry" />
        </mxCell>
        <mxCell id="M2gPaBllIkVykeYbQKTM-49" value="INT8" style="rounded=0;whiteSpace=wrap;html=1;fontSize=16;strokeWidth=2;strokeColor=#999999;fillColor=#FF6666;fontColor=#ffffff;" parent="1" vertex="1">
          <mxGeometry x="280" y="400" width="60" height="40" as="geometry" />
        </mxCell>
        <mxCell id="M2gPaBllIkVykeYbQKTM-50" style="edgeStyle=none;rounded=0;orthogonalLoop=1;jettySize=auto;html=1;exitX=0.5;exitY=0;exitDx=0;exitDy=0;entryX=0.153;entryY=1;entryDx=0;entryDy=0;entryPerimeter=0;strokeWidth=2;" parent="1" source="M2gPaBllIkVykeYbQKTM-48" target="M2gPaBllIkVykeYbQKTM-39" edge="1">
          <mxGeometry relative="1" as="geometry" />
        </mxCell>
        <mxCell id="M2gPaBllIkVykeYbQKTM-52" value="前一层" style="rounded=0;whiteSpace=wrap;html=1;fontSize=16;strokeWidth=2;strokeColor=#999999;fillColor=#d5e8d4;" parent="1" vertex="1">
          <mxGeometry x="20" y="700" width="80" height="40" as="geometry" />
        </mxCell>
        <mxCell id="M2gPaBllIkVykeYbQKTM-53" style="edgeStyle=orthogonalEdgeStyle;rounded=0;orthogonalLoop=1;jettySize=auto;html=1;exitX=1;exitY=0.5;exitDx=0;exitDy=0;strokeWidth=2;" parent="1" source="M2gPaBllIkVykeYbQKTM-54" target="M2gPaBllIkVykeYbQKTM-55" edge="1">
          <mxGeometry relative="1" as="geometry" />
        </mxCell>
        <mxCell id="M2gPaBllIkVykeYbQKTM-54" value="INT8" style="rounded=0;whiteSpace=wrap;html=1;fontSize=16;strokeWidth=2;strokeColor=#999999;fillColor=#FF6666;fontColor=#ffffff;" parent="1" vertex="1">
          <mxGeometry x="100" y="700" width="60" height="40" as="geometry" />
        </mxCell>
        <mxCell id="M2gPaBllIkVykeYbQKTM-55" value="当前层和激活" style="rounded=0;whiteSpace=wrap;html=1;fontSize=16;strokeWidth=2;strokeColor=#999999;fillColor=#d5e8d4;" parent="1" vertex="1">
          <mxGeometry x="200" y="700" width="260" height="40" as="geometry" />
        </mxCell>
        <mxCell id="M2gPaBllIkVykeYbQKTM-56" style="edgeStyle=orthogonalEdgeStyle;rounded=0;orthogonalLoop=1;jettySize=auto;html=1;exitX=1;exitY=0.5;exitDx=0;exitDy=0;entryX=0;entryY=0.5;entryDx=0;entryDy=0;strokeWidth=2;" parent="1" source="M2gPaBllIkVykeYbQKTM-57" target="M2gPaBllIkVykeYbQKTM-58" edge="1">
          <mxGeometry relative="1" as="geometry" />
        </mxCell>
        <mxCell id="M2gPaBllIkVykeYbQKTM-57" value="INT8" style="rounded=0;whiteSpace=wrap;html=1;fontSize=16;strokeWidth=2;strokeColor=#999999;fillColor=#FF6666;fontColor=#ffffff;" parent="1" vertex="1">
          <mxGeometry x="460" y="700" width="60" height="40" as="geometry" />
        </mxCell>
        <mxCell id="M2gPaBllIkVykeYbQKTM-58" value="下一层" style="rounded=0;whiteSpace=wrap;html=1;fontSize=16;strokeWidth=2;strokeColor=#999999;fillColor=#d5e8d4;" parent="1" vertex="1">
          <mxGeometry x="560" y="700" width="80" height="40" as="geometry" />
        </mxCell>
        <mxCell id="M2gPaBllIkVykeYbQKTM-59" value="INT8" style="rounded=0;whiteSpace=wrap;html=1;fontSize=16;strokeWidth=2;strokeColor=#999999;fillColor=#FF6666;fontColor=#ffffff;" parent="1" vertex="1">
          <mxGeometry x="640" y="700" width="60" height="40" as="geometry" />
        </mxCell>
        <mxCell id="M2gPaBllIkVykeYbQKTM-60" value="权重" style="rounded=0;whiteSpace=wrap;html=1;fontSize=16;strokeWidth=2;strokeColor=#999999;fillColor=#d5e8d4;" parent="1" vertex="1">
          <mxGeometry x="200" y="760" width="80" height="40" as="geometry" />
        </mxCell>
        <mxCell id="M2gPaBllIkVykeYbQKTM-61" value="INT8" style="rounded=0;whiteSpace=wrap;html=1;fontSize=16;strokeWidth=2;strokeColor=#999999;fillColor=#FF6666;fontColor=#ffffff;" parent="1" vertex="1">
          <mxGeometry x="280" y="760" width="60" height="40" as="geometry" />
        </mxCell>
        <mxCell id="M2gPaBllIkVykeYbQKTM-62" style="edgeStyle=none;rounded=0;orthogonalLoop=1;jettySize=auto;html=1;exitX=0.5;exitY=0;exitDx=0;exitDy=0;entryX=0.153;entryY=1;entryDx=0;entryDy=0;entryPerimeter=0;strokeWidth=2;" parent="1" source="M2gPaBllIkVykeYbQKTM-60" target="M2gPaBllIkVykeYbQKTM-55" edge="1">
          <mxGeometry relative="1" as="geometry" />
        </mxCell>
        <mxCell id="M2gPaBllIkVykeYbQKTM-63" value="前一层" style="rounded=0;whiteSpace=wrap;html=1;fontSize=16;strokeWidth=2;strokeColor=#999999;fillColor=#d5e8d4;" parent="1" vertex="1">
          <mxGeometry x="20" y="500" width="60" height="40" as="geometry" />
        </mxCell>
        <mxCell id="M2gPaBllIkVykeYbQKTM-64" style="edgeStyle=orthogonalEdgeStyle;rounded=0;orthogonalLoop=1;jettySize=auto;html=1;exitX=1;exitY=0.5;exitDx=0;exitDy=0;strokeWidth=2;entryX=0;entryY=0.5;entryDx=0;entryDy=0;" parent="1" source="M2gPaBllIkVykeYbQKTM-65" target="M2gPaBllIkVykeYbQKTM-77" edge="1">
          <mxGeometry relative="1" as="geometry" />
        </mxCell>
        <mxCell id="M2gPaBllIkVykeYbQKTM-65" value="FP32" style="rounded=0;whiteSpace=wrap;html=1;fontSize=16;strokeWidth=2;strokeColor=#999999;fillColor=#66CC00;fontColor=#ffffff;" parent="1" vertex="1">
          <mxGeometry x="80" y="500" width="50" height="40" as="geometry" />
        </mxCell>
        <mxCell id="M2gPaBllIkVykeYbQKTM-66" value="当前层" style="rounded=0;whiteSpace=wrap;html=1;fontSize=16;strokeWidth=2;strokeColor=#999999;fillColor=#d5e8d4;" parent="1" vertex="1">
          <mxGeometry x="200" y="500" width="80" height="40" as="geometry" />
        </mxCell>
        <mxCell id="M2gPaBllIkVykeYbQKTM-67" style="edgeStyle=orthogonalEdgeStyle;rounded=0;orthogonalLoop=1;jettySize=auto;html=1;exitX=1;exitY=0.5;exitDx=0;exitDy=0;entryX=0;entryY=0.5;entryDx=0;entryDy=0;strokeWidth=2;" parent="1" source="M2gPaBllIkVykeYbQKTM-68" target="M2gPaBllIkVykeYbQKTM-69" edge="1">
          <mxGeometry relative="1" as="geometry" />
        </mxCell>
        <mxCell id="M2gPaBllIkVykeYbQKTM-68" value="FP32" style="rounded=0;whiteSpace=wrap;html=1;fontSize=16;strokeWidth=2;strokeColor=#999999;fillColor=#66CC00;fontColor=#ffffff;" parent="1" vertex="1">
          <mxGeometry x="280" y="500" width="60" height="40" as="geometry" />
        </mxCell>
        <mxCell id="M2gPaBllIkVykeYbQKTM-69" value="激活" style="rounded=0;whiteSpace=wrap;html=1;fontSize=16;strokeWidth=2;strokeColor=#999999;fillColor=#d5e8d4;" parent="1" vertex="1">
          <mxGeometry x="380" y="500" width="60" height="40" as="geometry" />
        </mxCell>
        <mxCell id="M2gPaBllIkVykeYbQKTM-70" style="edgeStyle=orthogonalEdgeStyle;rounded=0;orthogonalLoop=1;jettySize=auto;html=1;entryX=0;entryY=0.5;entryDx=0;entryDy=0;strokeWidth=2;exitX=1;exitY=0.5;exitDx=0;exitDy=0;" parent="1" source="M2gPaBllIkVykeYbQKTM-80" target="M2gPaBllIkVykeYbQKTM-72" edge="1">
          <mxGeometry relative="1" as="geometry" />
        </mxCell>
        <mxCell id="M2gPaBllIkVykeYbQKTM-81" style="edgeStyle=none;rounded=0;orthogonalLoop=1;jettySize=auto;html=1;exitX=1;exitY=0.5;exitDx=0;exitDy=0;entryX=0;entryY=0.5;entryDx=0;entryDy=0;strokeWidth=2;" parent="1" source="M2gPaBllIkVykeYbQKTM-71" target="M2gPaBllIkVykeYbQKTM-80" edge="1">
          <mxGeometry relative="1" as="geometry" />
        </mxCell>
        <mxCell id="M2gPaBllIkVykeYbQKTM-71" value="FP32" style="rounded=0;whiteSpace=wrap;html=1;fontSize=16;strokeWidth=2;strokeColor=#999999;fillColor=#66CC00;fontColor=#ffffff;" parent="1" vertex="1">
          <mxGeometry x="440" y="500" width="50" height="40" as="geometry" />
        </mxCell>
        <mxCell id="M2gPaBllIkVykeYbQKTM-72" value="下一层" style="rounded=0;whiteSpace=wrap;html=1;fontSize=16;strokeWidth=2;strokeColor=#999999;fillColor=#d5e8d4;" parent="1" vertex="1">
          <mxGeometry x="560" y="500" width="80" height="40" as="geometry" />
        </mxCell>
        <mxCell id="M2gPaBllIkVykeYbQKTM-73" value="FP32" style="rounded=0;whiteSpace=wrap;html=1;fontSize=16;strokeWidth=2;strokeColor=#999999;fillColor=#66CC00;fontColor=#ffffff;" parent="1" vertex="1">
          <mxGeometry x="640" y="500" width="60" height="40" as="geometry" />
        </mxCell>
        <mxCell id="M2gPaBllIkVykeYbQKTM-74" style="edgeStyle=orthogonalEdgeStyle;rounded=0;orthogonalLoop=1;jettySize=auto;html=1;exitX=0.5;exitY=0;exitDx=0;exitDy=0;entryX=0.5;entryY=1;entryDx=0;entryDy=0;strokeWidth=2;" parent="1" source="M2gPaBllIkVykeYbQKTM-82" target="M2gPaBllIkVykeYbQKTM-66" edge="1">
          <mxGeometry relative="1" as="geometry" />
        </mxCell>
        <mxCell id="M2gPaBllIkVykeYbQKTM-75" value="权重" style="rounded=0;whiteSpace=wrap;html=1;fontSize=16;strokeWidth=2;strokeColor=#999999;fillColor=#d5e8d4;" parent="1" vertex="1">
          <mxGeometry x="200" y="620" width="80" height="40" as="geometry" />
        </mxCell>
        <mxCell id="M2gPaBllIkVykeYbQKTM-77" value="FQ" style="rounded=0;whiteSpace=wrap;html=1;fontSize=16;strokeWidth=2;strokeColor=#999999;fillColor=#B266FF;fontColor=#ffffff;" parent="1" vertex="1">
          <mxGeometry x="150" y="500" width="30" height="40" as="geometry" />
        </mxCell>
        <mxCell id="M2gPaBllIkVykeYbQKTM-79" style="edgeStyle=orthogonalEdgeStyle;rounded=0;orthogonalLoop=1;jettySize=auto;html=1;exitX=1;exitY=0.5;exitDx=0;exitDy=0;strokeWidth=2;entryX=0.033;entryY=0.508;entryDx=0;entryDy=0;entryPerimeter=0;" parent="1" source="M2gPaBllIkVykeYbQKTM-77" target="M2gPaBllIkVykeYbQKTM-66" edge="1">
          <mxGeometry relative="1" as="geometry">
            <mxPoint x="140" y="530" as="sourcePoint" />
            <mxPoint x="160" y="530" as="targetPoint" />
          </mxGeometry>
        </mxCell>
        <mxCell id="M2gPaBllIkVykeYbQKTM-80" value="FQ" style="rounded=0;whiteSpace=wrap;html=1;fontSize=16;strokeWidth=2;strokeColor=#999999;fillColor=#B266FF;fontColor=#ffffff;" parent="1" vertex="1">
          <mxGeometry x="510" y="500" width="30" height="40" as="geometry" />
        </mxCell>
        <mxCell id="M2gPaBllIkVykeYbQKTM-83" value="" style="edgeStyle=orthogonalEdgeStyle;rounded=0;orthogonalLoop=1;jettySize=auto;html=1;exitX=0.5;exitY=0;exitDx=0;exitDy=0;entryX=0.5;entryY=1;entryDx=0;entryDy=0;strokeWidth=2;" parent="1" source="M2gPaBllIkVykeYbQKTM-75" target="M2gPaBllIkVykeYbQKTM-82" edge="1">
          <mxGeometry relative="1" as="geometry">
            <mxPoint x="240" y="650" as="sourcePoint" />
            <mxPoint x="240" y="540" as="targetPoint" />
          </mxGeometry>
        </mxCell>
        <mxCell id="M2gPaBllIkVykeYbQKTM-82" value="FQ" style="rounded=0;whiteSpace=wrap;html=1;fontSize=16;strokeWidth=2;strokeColor=#999999;fillColor=#B266FF;fontColor=#ffffff;" parent="1" vertex="1">
          <mxGeometry x="225" y="560" width="30" height="40" as="geometry" />
        </mxCell>
        <mxCell id="M2gPaBllIkVykeYbQKTM-84" value="" style="endArrow=none;dashed=1;html=1;rounded=0;exitX=0;exitY=0.5;exitDx=0;exitDy=0;entryX=1;entryY=0.5;entryDx=0;entryDy=0;strokeWidth=2;strokeColor=#B85450;" parent="1" edge="1">
          <mxGeometry width="50" height="50" relative="1" as="geometry">
            <mxPoint x="-2.2737367544323206e-13" y="680" as="sourcePoint" />
            <mxPoint x="720" y="680" as="targetPoint" />
          </mxGeometry>
        </mxCell>
        <mxCell id="M2gPaBllIkVykeYbQKTM-85" value="原始模型" style="text;html=1;align=center;verticalAlign=middle;whiteSpace=wrap;rounded=0;fontSize=16;fontStyle=1" parent="1" vertex="1">
          <mxGeometry x="620" y="100" width="100" height="40" as="geometry" />
        </mxCell>
        <mxCell id="M2gPaBllIkVykeYbQKTM-86" value="动态训练后量化" style="text;html=1;align=center;verticalAlign=middle;whiteSpace=wrap;rounded=0;fontSize=16;fontStyle=1" parent="1" vertex="1">
          <mxGeometry x="570" y="260" width="150" height="40" as="geometry" />
        </mxCell>
        <mxCell id="M2gPaBllIkVykeYbQKTM-87" value="静态训练后量化" style="text;html=1;align=center;verticalAlign=middle;whiteSpace=wrap;rounded=0;fontSize=16;fontStyle=1" parent="1" vertex="1">
          <mxGeometry x="570" y="420" width="150" height="40" as="geometry" />
        </mxCell>
        <mxCell id="M2gPaBllIkVykeYbQKTM-88" value="量化感知训练 - 训练阶段" style="text;html=1;align=center;verticalAlign=middle;whiteSpace=wrap;rounded=0;fontSize=16;fontStyle=1" parent="1" vertex="1">
          <mxGeometry x="510" y="640" width="210" height="40" as="geometry" />
        </mxCell>
        <mxCell id="M2gPaBllIkVykeYbQKTM-89" value="量化感知训练 - 推理阶段" style="text;html=1;align=center;verticalAlign=middle;whiteSpace=wrap;rounded=0;fontSize=16;fontStyle=1" parent="1" vertex="1">
          <mxGeometry x="510" y="780" width="210" height="40" as="geometry" />
        </mxCell>
        <mxCell id="M2gPaBllIkVykeYbQKTM-90" value="FP32" style="rounded=0;whiteSpace=wrap;html=1;fontSize=16;strokeWidth=2;strokeColor=#999999;fillColor=#66CC00;fontColor=#ffffff;" parent="1" vertex="1">
          <mxGeometry x="280" y="620" width="60" height="40" as="geometry" />
        </mxCell>
      </root>
    </mxGraphModel>
  </diagram>
</mxfile>
